:FULLY-SPECIFIED
:FORCE-ALL-JOINTS-BE-3DOF
:DEGREES
102
root -2.83539 16.509 -36.1835 3.2237 0.143825 -2.20436
lfemur -21.241 5.87961 -9.16572
ltibia 44.5781 -0 0
lfoot -21.7281 -0.0823058 -0.000283529
ltoes -8.09268 0 0
rfemur -21.7202 -5.94134 13.7918
rtibia 47.3057 -0 0
rfoot -25.6235 1.53624 6.144e-05
rtoes -6.63337 0 0
lowerback 7.49866 1.99097 -1.74427
upperback -3.64755 2.57152 1.19601
thorax -8.19662 1.38762 1.86841
lowerneck -2.71269 -3.84787 -6.56123
upperneck 6.15137 -5.19972 5.92024
head 2.84919 -2.57323 2.93626
lclavicle -3.04894e-14 -3.57812e-15 0
lhumerus -26.7976 -4.21041 89.7968
lradius 24.9256 0 0
lwrist -30.2195 0 0
lhand -28.7039 30.1433 0
lfingers 7.12502 0 0
lthumb -2.06569 60.1131 0
rclavicle -3.04894e-14 -3.57812e-15 0
rhumerus -32.3996 3.02731 -80.2616
rradius 30.6279 0 0
rwrist 2.70398 0 0
rhand -19.9879 -27.8745 0
rfingers 7.12502 0 0
rthumb 6.35152 -57.7592 0
103
root -2.83395 16.5074 -36.1796 3.2345 0.0984108 -2.27888
lfemur -21.2837 5.87435 -9.14927
ltibia 44.6135 -0 0
lfoot -21.7463 -0.0674517 -0.000285892
ltoes -8.11757 0 0
rfemur -21.7471 -5.95534 13.8051
rtibia 47.3276 -0 0
rfoot -25.6339 1.52876 6.69013e-05
rtoes -6.69089 0 0
lowerback 7.46285 2.00172 -1.7131
upperback -3.65393 2.59173 1.22056
thorax -8.18338 1.39663 1.87488
lowerneck -2.78693 -3.84815 -6.54758
upperneck 6.2223 -5.198 5.90326
head 2.88589 -2.57151 2.92713
lclavicle 1.40469e-15 -6.36111e-15 0
lhumerus -26.7939 -4.16995 89.7913
lradius 24.9339 0 0
lwrist -30.2424 0 0
lhand -28.6047 30.2359 0
lfingers 7.12502 0 0
lthumb -1.96991 60.2066 0
rclavicle 1.40469e-15 -6.36111e-15 0
rhumerus -32.3535 2.95273 -80.2435
rradius 30.5522 0 0
rwrist 2.71864 0 0
rhand -19.9442 -27.818 0
rfingers 7.12502 0 0
rthumb 6.39371 -57.7015 0
104
root -2.83199 16.5088 -36.1758 3.28806 0.12855 -2.29513
lfemur -21.3265 5.8691 -9.13281
ltibia 44.649 -0 0
lfoot -21.7645 -0.0525975 -0.000283529
ltoes -8.14247 0 0
rfemur -21.774 -5.96933 13.8185
rtibia 47.3494 -0 0
rfoot -25.6444 1.52127 7.09973e-05
rtoes -6.74841 0 0
lowerback 7.37791 1.98235 -1.72172
upperback -3.69357 2.56616 1.22081
thorax -8.17576 1.3851 1.88581
lowerneck -2.69112 -3.83772 -6.52947
upperneck 6.19823 -5.18968 5.90533
head 2.85845 -2.5683 2.92596
lclavicle 5.28177e-15 -1.04362e-15 0
lhumerus -26.8442 -4.13784 89.7712
lradius 24.9541 0 0
lwrist -30.2652 0 0
lhand -28.5835 30.1857 0
lfingers 7.12502 0 0
lthumb -1.94945 60.1565 0
rclavicle 5.28177e-15 -1.04362e-15 0
rhumerus -32.425 2.88211 -80.2349
rradius 30.5577 0 0
rwrist 2.69924 0 0
rhand -19.8878 -27.5706 0
rfingers 7.12502 0 0
rthumb 6.44815 -57.4524 0
105
root -2.82947 16.5078 -36.1734 3.33607 0.149049 -2.30513
lfemur -21.3692 5.86386 -9.11635
ltibia 44.6844 -0 0
lfoot -21.7828 -0.0377433 -0.000276441
ltoes -8.16737 0 0
rfemur -21.8009 -5.98331 13.8318
rtibia 47.3713 -0 0
rfoot -25.6548 1.51378 7.3728e-05
rtoes -6.80592 0 0
lowerback 7.32754 1.97635 -1.73243
upperback -3.7182 2.55747 1.21668
thorax -8.17283 1.38162 1.88991
lowerneck -2.70842 -3.84124 -6.48948
upperneck 6.22184 -5.19492 5.88401
head 2.86762 -2.57029 2.91068
lclavicle 2.22883e-14 2.6985e-14 0
lhumerus -26.8553 -4.09739 89.7542
lradius 24.9658 0 0
lwrist -30.314 0 0
lhand -28.5677 30.0462 0
lfingers 7.12502 0 0
lthumb -1.93419 60.0172 0
rclavicle 2.22883e-14 2.6985e-14 0
rhumerus -32.4624 2.82445 -80.2352
rradius 30.5882 0 0
rwrist 2.68202 0 0
rhand -19.8801 -27.6042 0
rfingers 7.12502 0 0
rthumb 6.45552 -57.4858 0
106
root -2.8277 16.5086 -36.1716 3.37051 0.181047 -2.35253
lfemur -21.412 5.85863 -9.09988
ltibia 44.7199 -0 0
lfoot -21.801 -0.0228891 -0.000264627
ltoes -8.19227 0 0
rfemur -21.8278 -5.99729 13.8452
rtibia 47.3932 -0 0
rfoot -25.6653 1.50629 7.50933e-05
rtoes -6.86344 0 0
lowerback 7.2879 1.96665 -1.72144
upperback -3.74694 2.54747 1.23139
thorax -8.18044 1.37702 1.90154
lowerneck -2.62272 -3.81502 -6.49001
upperneck 6.17888 -5.16558 5.92283
head 2.83645 -2.55589 2.92642
lclavicle -3.9524e-16 8.59744e-15 0
lhumerus -26.885 -4.05976 89.7487
lradius 24.9782 0 0
lwrist -30.3501 0 0
lhand -28.5414 30.177 0
lfingers 7.12502 0 0
lthumb -1.90879 60.1482 0
rclavicle -3.9524e-16 8.59744e-15 0
rhumerus -32.4836 2.78304 -80.2323
rradius 30.5776 0 0
rwrist 2.64235 0 0
rhand -19.8702 -27.5955 0
rfingers 7.12502 0 0
rthumb 6.46513 -57.4768 0
107
root -2.82629 16.507 -36.1703 3.4023 0.213531 -2.41533
lfemur -21.4547 5.85342 -9.08341
ltibia 44.7553 -0 0
lfoot -21.8192 -0.00803497 -0.000248088
ltoes -8.21717 0 0
rfemur -21.8548 -6.01127 13.8585
rtibia 47.4151 -0 0
rfoot -25.6757 1.49881 7.50933e-05
rtoes -6.92096 0 0
lowerback 7.25834 1.9637 -1.68444
upperback -3.76594 2.54875 1.24141
thorax -8.18246 1.37621 1.89179
lowerneck -2.58878 -3.83133 -6.48817
upperneck 6.117 -5.18956 5.95709
head 2.81215 -2.56727 2.93718
lclavicle 1.05791e-14 -6.90777e-15 0
lhumerus -26.9081 -4.10719 89.7567
lradius 25.0132 0 0
lwrist -30.2962 0 0
lhand -28.6146 30.0934 0
lfingers 7.12502 0 0
lthumb -1.97948 60.0639 0
rclavicle 1.05791e-14 -6.90777e-15 0
rhumerus -32.551 2.71211 -80.2274
rradius 30.6479 0 0
rwrist 2.61329 0 0
rhand -19.8515 -27.4487 0
rfingers 7.12502 0 0
rthumb 6.48318 -57.3294 0
108
root -2.82553 16.5074 -36.169 3.42396 0.261848 -2.42925
lfemur -21.4975 5.84822 -9.06694
ltibia 44.7908 -0 0
lfoot -21.8374 0.00681918 -0.000226823
ltoes -8.24206 0 0
rfemur -21.8817 -6.02524 13.8719
rtibia 47.437 -0 0
rfoot -25.6862 1.49132 7.3728e-05
rtoes -6.97848 0 0
lowerback 7.24104 1.94876 -1.71989
upperback -3.76487 2.52627 1.25615
thorax -8.17255 1.36759 1.9311
lowerneck -2.62736 -3.83082 -6.51922
upperneck 6.10566 -5.18775 6.0019
head 2.81851 -2.56529 2.95808
lclavicle 9.74433e-15 -4.87022e-15 0
lhumerus -26.8962 -4.10523 89.7609
lradius 25.0508 0 0
lwrist -30.2668 0 0
lhand -28.6056 30.0082 0
lfingers 7.12502 0 0
lthumb -1.97077 59.9788 0
rclavicle 9.74433e-15 -4.87022e-15 0
rhumerus -32.5396 2.73302 -80.2291
rradius 30.6746 0 0
rwrist 2.55194 0 0
rhand -19.8827 -27.4668 0
rfingers 7.12502 0 0
rthumb 6.45306 -57.3485 0
109
root -2.8256 16.5061 -36.1688 3.44697 0.304728 -2.46249
lfemur -21.5402 5.84303 -9.05046
ltibia 44.8262 -0 0
lfoot -21.8557 0.0216733 -0.000200833
ltoes -8.26696 0 0
rfemur -21.9086 -6.0392 13.8852
rtibia 47.4589 -0 0
rfoot -25.6966 1.48383 7.09973e-05
rtoes -6.99872 0 0
lowerback 7.25777 1.94003 -1.73835
upperback -3.79625 2.51382 1.27161
thorax -8.21727 1.36363 1.95866
lowerneck -2.5926 -3.82731 -6.54524
upperneck 6.07989 -5.1855 6.04281
head 2.80581 -2.5642 2.97763
lclavicle 3.45e-14 1.07841e-14 0
lhumerus -26.926 -4.1682 89.7859
lradius 25.0841 0 0
lwrist -30.1417 0 0
lhand -28.4707 30.2988 0
lfingers 7.12502 0 0
lthumb -1.84048 60.2706 0
rclavicle 3.45e-14 1.07841e-14 0
rhumerus -32.6239 2.74284 -80.2374
rradius 30.7419 0 0
rwrist 2.49791 0 0
rhand -20.4671 -26.9521 0
rfingers 7.12502 0 0
rthumb 5.88884 -56.8503 0
110
root -2.82539 16.5055 -36.169 3.47992 0.359864 -2.46819
lfemur -21.583 5.83785 -9.03398
ltibia 44.8616 -0 0
lfoot -21.8739 0.0365274 -0.000170117
ltoes -8.29186 0 0
rfemur -21.9355 -6.05315 13.8986
rtibia 47.4808 -0 0
rfoot -25.7071 1.47634 6.69013e-05
rtoes -7.01896 0 0
lowerback 7.23704 1.93051 -1.77475
upperback -3.80793 2.4974 1.27023
thorax -8.21861 1.35774 1.98049
lowerneck -2.56799 -3.83384 -6.50813
upperneck 6.03252 -5.19545 6.03853
head 2.7842 -2.56871 2.96891
lclavicle 2.02139e-14 2.96686e-14 0
lhumerus -26.9147 -4.09973 89.7566
lradius 25.0984 0 0
lwrist -30.1647 0 0
lhand -28.4718 30.2244 0
lfingers 7.12502 0 0
lthumb -1.84156 60.1962 0
rclavicle 2.02139e-14 2.96686e-14 0
rhumerus -32.6425 2.71096 -80.2456
rradius 30.7569 0 0
rwrist 2.4932 0 0
rhand -20.5234 -26.9012 0
rfingers 7.12502 0 0
rthumb 5.83446 -56.8009 0
111
root -2.82608 16.504 -36.1699 3.49051 0.395155 -2.46735
lfemur -21.6258 5.83268 -9.0175
ltibia 44.8971 -0 0
lfoot -21.8921 0.0513815 -0.000134676
ltoes -8.31676 0 0
rfemur -21.9624 -6.0671 13.912
rtibia 47.5027 -0 0
rfoot -25.7175 1.46886 6.144e-05
rtoes -7.0392 0 0
lowerback 7.28634 1.93037 -1.82523
upperback -3.82931 2.49109 1.26721
thorax -8.27249 1.35789 2.0048
lowerneck -2.56829 -3.84005 -6.50772
upperneck 6.01939 -5.20537 6.06933
head 2.78179 -2.57279 2.97905
lclavicle -1.91788e-14 -2.26615e-14 0
lhumerus -26.9305 -4.13584 89.7526
lradius 25.1395 0 0
lwrist -30.087 0 0
lhand -28.452 30.2333 0
lfingers 7.12502 0 0
lthumb -1.82247 60.2053 0
rclavicle -1.91788e-14 -2.26615e-14 0
rhumerus -32.6662 2.69065 -80.264
rradius 30.7772 0 0
rwrist 2.47647 0 0
rhand -20.5236 -26.9809 0
rfingers 7.12502 0 0
rthumb 5.8343 -56.8805 0
112
root -2.82553 16.5026 -36.171 3.49626 0.452685 -2.44557
lfemur -21.6685 5.82753 -9.00101
ltibia 44.9325 -0 0
lfoot -21.9103 0.0662356 -9.45095e-05
ltoes -8.34166 0 0
rfemur -21.9894 -6.08104 13.9254
rtibia 47.5246 -0 0
rfoot -25.728 1.46137 5.46133e-05
rtoes -7.05945 0 0
lowerback 7.31681 1.92025 -1.87485
upperback -3.8331 2.47072 1.25351
thorax -8.29502 1.3504 2.02022
lowerneck -2.60079 -3.86294 -6.49011
upperneck 6.01557 -5.23527 6.0726
head 2.78819 -2.58664 2.97519
lclavicle -1.60146e-14 -2.83268e-14 0
lhumerus -26.926 -4.20794 89.7456
lradius 25.1833 0 0
lwrist -29.9919 0 0
lhand -28.5056 30.2619 0
lfingers 7.12502 0 0
lthumb -1.87418 60.2334 0
rclavicle -1.60146e-14 -2.83268e-14 0
rhumerus -32.7127 2.70587 -80.2927
rradius 30.8127 0 0
rwrist 2.48163 0 0
rhand -20.5009 -27.0666 0
rfingers 7.12502 0 0
rthumb 5.85625 -56.9657 0
113
root -2.82557 16.4994 -36.1722 3.50116 0.477172 -2.49343
lfemur -21.7113 5.82239 -8.98452
ltibia 44.968 -0 0
lfoot -21.9286 0.0810897 -4.96174e-05
ltoes -8.36655 0 0
rfemur -22.0163 -6.09498 13.9388
rtibia 47.5465 -0 0
rfoot -25.7384 1.45388 4.64213e-05
rtoes -7.07969 0 0
lowerback 7.34304 1.91664 -1.86154
upperback -3.83422 2.46776 1.26366
thorax -8.31126 1.34866 2.02313
lowerneck -2.64662 -3.87007 -6.5026
upperneck 6.02941 -5.24374 6.09551
head 2.80354 -2.58982 2.98456
lclavicle -1.01209e-14 -1.31695e-14 0
lhumerus -26.9021 -4.22229 89.7276
lradius 25.1977 0 0
lwrist -29.9667 0 0
lhand -28.528 30.2902 0
lfingers 7.12502 0 0
lthumb -1.89588 60.2615 0
rclavicle -1.01209e-14 -1.31695e-14 0
rhumerus -32.708 2.69018 -80.311
rradius 30.8066 0 0
rwrist 2.50733 0 0
rhand -20.5031 -27.0752 0
rfingers 7.12502 0 0
rthumb 5.8541 -56.9743 0
114
root -2.82597 16.4974 -36.1731 3.51095 0.49795 -2.453
lfemur -21.754 5.81726 -8.96802
ltibia 45.0034 -0 0
lfoot -21.9468 0.0959437 0
ltoes -8.39145 0 0
rfemur -22.0433 -6.10891 13.9522
rtibia 47.5683 -0 0
rfoot -25.7489 1.44639 3.6864e-05
rtoes -7.09993 0 0
lowerback 7.33165 1.92248 -1.94212
upperback -3.8083 2.46548 1.24547
thorax -8.27943 1.35089 2.0502
lowerneck -2.72119 -3.88924 -6.47279
upperneck 6.02767 -5.26678 6.09547
head 2.81741 -2.5994 2.97696
lclavicle 1.05371e-14 5.71506e-15 0
lhumerus -26.83 -4.22949 89.6949
lradius 25.2124 0 0
lwrist -29.9565 0 0
lhand -28.5273 30.2503 0
lfingers 7.12502 0 0
lthumb -1.89515 60.2217 0
rclavicle 1.05371e-14 5.71506e-15 0
rhumerus -32.6723 2.64046 -80.3175
rradius 30.7967 0 0
rwrist 2.58222 0 0
rhand -20.4457 -27.1476 0
rfingers 7.12502 0 0
rthumb 5.90952 -57.0452 0
